<svg width="1952" height="2164" viewBox="0 0 1952 2164" fill="none" xmlns="http://www.w3.org/2000/svg">
<path d="M250.155 0V961.163" stroke="url(#paint0_linear_67_51)"/>
<path d="M0 1668.66H1034.37" stroke="url(#paint1_linear_67_51)"/>
<path d="M999.63 1202.84V2164" stroke="url(#paint2_linear_67_51)"/>
<path d="M1749.1 601.418V1562.58" stroke="url(#paint3_linear_67_51)"/>
<rect width="328.543" height="329.632" transform="matrix(0.717014 0.697059 -0.747675 0.664064 1715.63 775.756)" fill="url(#paint4_linear_67_51)" fill-opacity="0.1"/>
<rect width="74.6603" height="76.6652" transform="matrix(-0.593242 0.805024 -0.843686 -0.536837 295.598 901.776)" fill="url(#paint5_linear_67_51)" fill-opacity="0.1"/>
<rect width="174.113" height="167.993" transform="matrix(0.878051 -0.478567 0.533778 0.845624 4.96338 1347.04)" fill="url(#paint6_linear_67_51)" fill-opacity="0.1"/>
<defs>
<linearGradient id="paint0_linear_67_51" x1="250.65" y1="961.163" x2="250.66" y2="5.12487e-06" gradientUnits="userSpaceOnUse">
<stop stop-color="#5526DB"/>
<stop offset="1" stop-color="#538BF0" stop-opacity="0"/>
</linearGradient>
<linearGradient id="paint1_linear_67_51" x1="1034.37" y1="1668.17" x2="5.53213e-06" y2="1668.15" gradientUnits="userSpaceOnUse">
<stop stop-color="#5526DB"/>
<stop offset="1" stop-color="#538BF0" stop-opacity="0"/>
</linearGradient>
<linearGradient id="paint2_linear_67_51" x1="1000.12" y1="2164" x2="1000.13" y2="1202.84" gradientUnits="userSpaceOnUse">
<stop stop-color="#5526DB"/>
<stop offset="1" stop-color="#538BF0" stop-opacity="0"/>
</linearGradient>
<linearGradient id="paint3_linear_67_51" x1="1749.6" y1="1562.58" x2="1749.61" y2="601.418" gradientUnits="userSpaceOnUse">
<stop stop-color="#5526DB"/>
<stop offset="1" stop-color="#538BF0" stop-opacity="0"/>
</linearGradient>
<linearGradient id="paint4_linear_67_51" x1="328.543" y1="0" x2="-1.087" y2="328.541" gradientUnits="userSpaceOnUse">
<stop stop-color="#5526DB"/>
<stop offset="1" stop-color="#6A3AF1" stop-opacity="0"/>
</linearGradient>
<linearGradient id="paint5_linear_67_51" x1="74.6603" y1="0" x2="-1.97802" y2="74.6341" gradientUnits="userSpaceOnUse">
<stop stop-color="#5526DB"/>
<stop offset="1" stop-color="#6A3AF1" stop-opacity="0"/>
</linearGradient>
<linearGradient id="paint6_linear_67_51" x1="174.113" y1="0" x2="6.22674" y2="174.001" gradientUnits="userSpaceOnUse">
<stop stop-color="#5526DB"/>
<stop offset="1" stop-color="#6A3AF1" stop-opacity="0"/>
</linearGradient>
</defs>
</svg>
