<svg width="70" height="70" viewBox="0 0 70 70" fill="none" xmlns="http://www.w3.org/2000/svg">
<path d="M62.5 0H7.5C3.35938 0 0 3.35938 0 7.5V62.5C0 66.6406 3.35938 70 7.5 70H62.5C66.6406 70 70 66.6406 70 62.5V7.5C70 3.35938 66.6406 0 62.5 0ZM43.3281 59.9531C42.0156 60.1875 41.5312 59.375 41.5312 58.7031C41.5312 57.8594 41.5625 53.5469 41.5625 50.0625C41.5625 47.625 40.75 46.0781 39.7969 45.2656C45.5781 44.625 51.6719 43.8281 51.6719 33.8438C51.6719 31 50.6562 29.5781 49 27.75C49.2656 27.0781 50.1562 24.3125 48.7344 20.7188C46.5625 20.0469 41.5938 23.5156 41.5938 23.5156C39.5313 22.9375 37.2969 22.6406 35.0938 22.6406C32.8906 22.6406 30.6562 22.9375 28.5938 23.5156C28.5938 23.5156 23.625 20.0469 21.4531 20.7188C20.0312 24.2969 20.9063 27.0625 21.1875 27.75C19.5312 29.5781 18.75 31 18.75 33.8438C18.75 43.7812 24.5781 44.625 30.3594 45.2656C29.6094 45.9375 28.9375 47.0938 28.7031 48.75C27.2188 49.4219 23.4219 50.5781 21.1562 46.5781C19.7344 44.1094 17.1719 43.9062 17.1719 43.9062C14.6406 43.875 17 45.5 17 45.5C18.6875 46.2812 19.875 49.2812 19.875 49.2812C21.3906 53.9219 28.6406 52.3594 28.6406 52.3594C28.6406 54.5312 28.6719 58.0625 28.6719 58.7031C28.6719 59.375 28.2031 60.1875 26.875 59.9531C16.5625 56.5 9.34375 46.6875 9.34375 35.2188C9.34375 20.875 20.3125 9.98438 34.6562 9.98438C49 9.98438 60.625 20.875 60.625 35.2188C60.6406 46.6875 53.6406 56.5156 43.3281 59.9531ZM28 50.4062C27.7031 50.4688 27.4219 50.3438 27.3906 50.1406C27.3594 49.9062 27.5625 49.7031 27.8594 49.6406C28.1562 49.6094 28.4375 49.7344 28.4688 49.9375C28.5156 50.1406 28.3125 50.3438 28 50.4062ZM26.5156 50.2656C26.5156 50.4688 26.2812 50.6406 25.9688 50.6406C25.625 50.6719 25.3906 50.5 25.3906 50.2656C25.3906 50.0625 25.625 49.8906 25.9375 49.8906C26.2344 49.8594 26.5156 50.0312 26.5156 50.2656ZM24.375 50.0938C24.3125 50.2969 24 50.3906 23.7344 50.2969C23.4375 50.2344 23.2344 50 23.2969 49.7969C23.3594 49.5938 23.6719 49.5 23.9375 49.5625C24.25 49.6563 24.4531 49.8906 24.375 50.0938ZM22.4531 49.25C22.3125 49.4219 22.0156 49.3906 21.7812 49.1562C21.5469 48.9531 21.4844 48.6562 21.6406 48.5156C21.7812 48.3438 22.0781 48.375 22.3125 48.6094C22.5156 48.8125 22.5938 49.125 22.4531 49.25ZM21.0312 47.8281C20.8906 47.9219 20.625 47.8281 20.4531 47.5938C20.2812 47.3594 20.2812 47.0938 20.4531 46.9844C20.625 46.8438 20.8906 46.9531 21.0312 47.1875C21.2031 47.4219 21.2031 47.7031 21.0312 47.8281ZM20.0156 46.3125C19.875 46.4531 19.6406 46.375 19.4688 46.2188C19.2969 46.0156 19.2656 45.7812 19.4062 45.6719C19.5469 45.5312 19.7812 45.6094 19.9531 45.7656C20.125 45.9688 20.1562 46.2031 20.0156 46.3125ZM18.9688 45.1562C18.9062 45.2969 18.7031 45.3281 18.5312 45.2188C18.3281 45.125 18.2344 44.9531 18.2969 44.8125C18.3594 44.7187 18.5312 44.6719 18.7344 44.75C18.9375 44.8594 19.0312 45.0312 18.9688 45.1562Z" fill="#E6E8E8"/>
</svg>
