<svg width="70" height="70" viewBox="0 0 70 70" fill="none" xmlns="http://www.w3.org/2000/svg">
<path d="M35 26.6656C33.3517 26.6662 31.7407 27.1556 30.3705 28.0717C29.0004 28.9879 27.9326 30.2898 27.3023 31.8127C26.6719 33.3357 26.5073 35.0114 26.8293 36.6279C27.1512 38.2444 27.9452 39.7291 29.1109 40.8944C30.2766 42.0597 31.7617 42.8531 33.3783 43.1745C34.9949 43.4958 36.6705 43.3306 38.1933 42.6997C39.716 42.0688 41.0175 41.0005 41.9331 39.63C42.8488 38.2595 43.3375 36.6483 43.3375 35C43.3358 32.7896 42.4568 30.6702 40.8935 29.1074C39.3302 27.5447 37.2104 26.6665 35 26.6656ZM54.4859 20.2594C54.0616 19.1841 53.4209 18.2075 52.6036 17.3902C51.7862 16.5728 50.8096 15.9321 49.7344 15.5078C46.4531 14.2125 38.6406 14.5031 35 14.5031C31.3594 14.5031 23.5547 14.2016 20.2641 15.5078C19.1888 15.9321 18.2122 16.5728 17.3949 17.3902C16.5775 18.2075 15.9368 19.1841 15.5125 20.2594C14.2188 23.5406 14.5078 31.3609 14.5078 34.9984C14.5078 38.6359 14.2188 46.4469 15.5188 49.7391C15.943 50.8143 16.5837 51.7909 17.4011 52.6083C18.2185 53.4256 19.1951 54.0663 20.2703 54.4906C23.5516 55.7859 31.3641 55.4953 35.0062 55.4953C38.6484 55.4953 46.45 55.7969 49.7406 54.4906C50.8159 54.0663 51.7925 53.4256 52.6098 52.6083C53.4272 51.7909 54.0679 50.8143 54.4922 49.7391C55.7969 46.4578 55.4969 38.6375 55.4969 35C55.4969 31.3625 55.7969 23.5531 54.4922 20.2609L54.4859 20.2594ZM35 47.8125C32.4659 47.8125 29.9888 47.0611 27.8818 45.6532C25.7748 44.2453 24.1325 42.2443 23.1628 39.9031C22.193 37.562 21.9393 34.9858 22.4337 32.5004C22.9281 30.015 24.1483 27.7321 25.9402 25.9402C27.7321 24.1483 30.015 22.9281 32.5004 22.4337C34.9858 21.9393 37.562 22.193 39.9031 23.1628C42.2443 24.1325 44.2453 25.7748 45.6532 27.8818C47.0611 29.9888 47.8125 32.4659 47.8125 35C47.8146 36.6831 47.4846 38.3502 46.8414 39.9056C46.1982 41.461 45.2546 42.8742 44.0644 44.0644C42.8742 45.2546 41.461 46.1982 39.9056 46.8414C38.3502 47.4846 36.6831 47.8146 35 47.8125ZM48.3406 24.6406C47.7491 24.6409 47.1707 24.4658 46.6787 24.1374C46.1867 23.8089 45.8031 23.342 45.5765 22.7955C45.3499 22.2491 45.2905 21.6477 45.4057 21.0675C45.5209 20.4873 45.8056 19.9543 46.2238 19.5359C46.642 19.1175 47.1749 18.8325 47.755 18.717C48.3352 18.6014 48.9366 18.6606 49.4832 18.8869C50.0297 19.1132 50.4969 19.4965 50.8256 19.9883C51.1543 20.4802 51.3297 21.0584 51.3297 21.65C51.3313 22.0428 51.2554 22.4321 51.1063 22.7955C50.9571 23.159 50.7377 23.4894 50.4606 23.7678C50.1834 24.0462 49.8541 24.2672 49.4914 24.4181C49.1286 24.5689 48.7397 24.6467 48.3469 24.6469L48.3406 24.6406ZM62.5 0H7.5C5.51088 0 3.60322 0.790177 2.1967 2.1967C0.790176 3.60322 0 5.51088 0 7.5L0 62.5C0 64.4891 0.790176 66.3968 2.1967 67.8033C3.60322 69.2098 5.51088 70 7.5 70H62.5C64.4891 70 66.3968 69.2098 67.8033 67.8033C69.2098 66.3968 70 64.4891 70 62.5V7.5C70 5.51088 69.2098 3.60322 67.8033 2.1967C66.3968 0.790177 64.4891 0 62.5 0ZM59.825 45.3125C59.6234 49.3172 58.7094 52.8656 55.7859 55.7812C52.8625 58.6969 49.3172 59.6297 45.3172 59.8203C41.1906 60.0531 28.8188 60.0531 24.6922 59.8203C20.6875 59.6188 17.1516 58.7031 14.2234 55.7812C11.2953 52.8594 10.375 49.3094 10.1844 45.3125C9.95156 41.1844 9.95156 28.8109 10.1844 24.6875C10.3859 20.6828 11.2891 17.1344 14.2234 14.2188C17.1578 11.3031 20.7031 10.3813 24.6922 10.1906C28.8188 9.95781 41.1906 9.95781 45.3172 10.1906C49.3219 10.3922 52.8688 11.3078 55.7859 14.2297C58.7031 17.1516 59.6344 20.7016 59.825 24.7062C60.0578 28.8187 60.0578 41.1813 59.825 45.3125Z" fill="#E6E8E8"/>
</svg>
